# xmcd
#
# Track frame offsets: 
#        150
#        11292
#        22015
#        33200
#        46130
#        59755
#        73390
#        86855
#        100515
#        112735
#        124202
#        137860
#        149357
#        159345
#
# Disc length: 2273 seconds
#
# Revision: 3
# Processed by: cddbd v1.5.2PL0 Copyright (c) Steve Scherf et al.
# Submitted via: ExactAudioCopy v0.95b3
#
DISCID=bd08df0e
DTITLE=John Lee Hooker - Blues Collection
DYEAR=1990
DGENRE=Blues
TTITLE0=Big Fine Woman
TTITLE1=Keep Your Hands To Yourself
TTITLE2=What Do You Say
TTITLE3=Lost A Good Girl
TTITLE4=Ground Hog Blues
TTITLE5=Driftin' From Door To Door
TTITLE6=I Love You Baby
TTITLE7=The Syndicator
TTITLE8=Boogie Woogie All Night Long
TTITLE9=Good Rockin' Mama
TTITLE10=House Rent Boogie
TTITLE11=Boogie Chillum
TTITLE12=Dimples
TTITLE13=Boom Boom
EXTD=
EXTT0=
EXTT1=
EXTT2=
EXTT3=
EXTT4=
EXTT5=
EXTT6=
EXTT7=
EXTT8=
EXTT9=
EXTT10=
EXTT11=
EXTT12=
EXTT13=
PLAYORDER=
